<?xml version="1.0" encoding="iso-8859-1"?>
<!-- Generator: Adobe Illustrator 19.0.0, SVG Export Plug-In . SVG Version: 6.00 Build 0)  -->
<svg version="1.1" id="Capa_1" xmlns="http://www.w3.org/2000/svg" xmlns:xlink="http://www.w3.org/1999/xlink" x="0px" y="0px"
	 viewBox="0 0 512.007 512.007" style="enable-background:new 0 0 512.007 512.007;" xml:space="preserve">
<circle style="fill:#E25F3F;" cx="256.003" cy="256.003" r="256.003"/>
<path style="fill:#A2482A;" d="M409.895,134.423l-16.029-16.029l-16.289-16.289L265.968,213.714
	c-24.242-11.115-53.858-6.698-73.821,13.265l-57.571,57.571l-62.55,16.72l46.24,46.24c-12.765,12.765-12.765,33.461,0,46.226
	c0.043,0.043,0.089,0.083,0.133,0.126l-0.003,0.003l117.337,117.337c6.688,0.524,13.446,0.798,20.27,0.798
	c141.385,0,256-114.615,256-256c0-6.822-0.273-13.581-0.798-20.27L409.895,134.423z"/>
<rect x="289.703" y="84.636" transform="matrix(-0.7071 -0.7071 0.7071 -0.7071 392.5366 561.4845)" style="fill:#7E4F1F;" width="45.705" height="229.619"/>
<rect x="309.362" y="92.778" transform="matrix(-0.7071 -0.7071 0.7071 -0.7071 400.6769 581.1415)" style="fill:#5E3C16;" width="22.669" height="229.619"/>
<circle style="fill:#E2A52B;" cx="141.375" cy="370.622" r="32.692"/>
<path style="fill:#BA6F0C;" d="M164.49,393.737c12.765-12.765,12.765-33.461,0-46.226l-46.226,46.226
	C131.029,406.501,151.725,406.501,164.49,393.737z"/>
<path style="fill:#F6D433;" d="M210.73,439.977l17.043-62.875l57.248-57.248c25.647-25.647,25.647-67.227,0-92.874
	c-25.647-25.647-67.227-25.647-92.874,0l-57.571,57.571l-62.55,16.72L210.73,439.977z"/>
<path style="fill:#EF9C16;" d="M141.377,370.624l69.353,69.353l17.043-62.875l57.248-57.248c25.647-25.647,25.647-67.227,0-92.874
	l0,0L141.377,370.624z"/>
<rect x="132.113" y="300.85" transform="matrix(-0.7071 -0.7071 0.7071 -0.7071 115.4489 676.2563)" style="fill:#F9ED9D;" width="131.338" height="26.737"/>
<rect x="188.16" y="324.089" transform="matrix(0.7071 0.7071 -0.7071 0.7071 303.3463 -57.4272)" style="fill:#F7DC4D;" width="65.669" height="26.737"/>
<g>
</g>
<g>
</g>
<g>
</g>
<g>
</g>
<g>
</g>
<g>
</g>
<g>
</g>
<g>
</g>
<g>
</g>
<g>
</g>
<g>
</g>
<g>
</g>
<g>
</g>
<g>
</g>
<g>
</g>
</svg>
