<?xml version="1.0" encoding="iso-8859-1"?>
<!-- Generator: Adobe Illustrator 19.0.0, SVG Export Plug-In . SVG Version: 6.00 Build 0)  -->
<svg version="1.1" id="Layer_1" xmlns="http://www.w3.org/2000/svg" xmlns:xlink="http://www.w3.org/1999/xlink" x="0px" y="0px"
	 viewBox="0 0 408.76 408.76" style="enable-background:new 0 0 408.76 408.76;" xml:space="preserve">
<g>
	<path style="fill:#FFBE00;" d="M204.383,408.76c-58.121,0-113.675-24.867-152.417-68.228
		C18.459,303.057,0.004,254.703,0.004,204.381C0.004,91.685,91.689,0,204.383,0c50.319,0,98.676,18.455,136.165,51.964
		c43.348,38.762,68.207,94.316,68.207,152.417C408.755,317.077,317.074,408.76,204.383,408.76"/>
	<path style="fill:#F4502A;" d="M377.75,204.377c0,18.081-2.77,35.52-7.909,51.899c-20.39,65.092-78.11,113.662-148.081,120.61
		c-5.721,0.58-11.51,0.87-17.38,0.87c-1.119,0-2.24-0.009-3.35-0.039c-50.04-0.94-94.9-23.09-125.951-57.84
		c-0.259-0.29-0.519-0.591-0.789-0.881c-26.951-30.559-43.29-70.679-43.29-114.619c0-95.749,77.619-173.379,173.38-173.379
		c43.949,0,84.069,16.35,114.631,43.291c0.29,0.27,0.589,0.53,0.879,0.789c34.74,31.071,56.88,75.911,57.82,125.951
		C377.741,202.137,377.75,203.258,377.75,204.377"/>
	<path style="fill:#C29100;" d="M75.871,320.758c0.006,0.007,0.014,0.016,0.021,0.023C75.885,320.775,75.877,320.765,75.871,320.758
		 M74.453,319.175c0.434,0.49,0.867,0.974,1.306,1.46c-0.227-0.251-0.455-0.505-0.681-0.757
		C74.872,319.647,74.665,319.409,74.453,319.175"/>
	<path style="fill:#BA3D20;" d="M204.383,31.001c-95.76,0-173.38,77.619-173.38,173.368c0,44.032,16.408,84.229,43.45,114.806
		c0.212,0.233,0.419,0.472,0.625,0.703c0.225,0.252,0.454,0.506,0.681,0.757c0.036,0.04,0.075,0.083,0.112,0.123
		c0.006,0.006,0.015,0.017,0.021,0.023c5.164,5.695,10.699,11.043,16.571,16.01c-25.53-30.202-40.919-69.241-40.919-111.879
		c0-95.751,77.619-173.37,173.38-173.37c42.631,0,81.68,15.39,111.87,40.919C305.004,54.871,257.484,31.001,204.383,31.001"/>
	<path style="fill:#BA3D20;" d="M305.03,128.348l-165.289,5.45l-26.671,31.33l23.339,34l-12.878,6.281l74.299,74.3l-94.1,0.709
		l97.301,97.3c1.11,0.03,2.231,0.039,3.35,0.039c5.87,0,11.659-0.29,17.38-0.87c69.97-6.949,127.69-55.519,148.081-120.61
		c5.139-16.379,7.909-33.819,7.909-51.899c0-1.119-0.009-2.24-0.041-3.35l0,0L305.03,128.348"/>
	<path style="fill:#FFFFFF;" d="M255.828,193.415H153.161c-14.888,0-27-12.112-27-27s12.112-27,27-27h114.555v26.143l37.312-37.212
		l-37.312-37.212v26.212v0.069H153.161c-27.019,0-49,21.981-49,49s21.981,49,49,49h102.667c14.888,0,27,12.112,27,27
		s-12.112,27-27,27H141.039v-26.212l-37.311,37.212l37.311,37.212v-26.212h114.789c27.019,0,49-21.981,49-49
		S282.848,193.415,255.828,193.415z"/>
</g>
<g>
</g>
<g>
</g>
<g>
</g>
<g>
</g>
<g>
</g>
<g>
</g>
<g>
</g>
<g>
</g>
<g>
</g>
<g>
</g>
<g>
</g>
<g>
</g>
<g>
</g>
<g>
</g>
<g>
</g>
</svg>
