<?xml version="1.0" encoding="iso-8859-1"?>
<!-- Generator: Adobe Illustrator 19.0.0, SVG Export Plug-In . SVG Version: 6.00 Build 0)  -->
<svg version="1.1" id="Layer_1" xmlns="http://www.w3.org/2000/svg" xmlns:xlink="http://www.w3.org/1999/xlink" x="0px" y="0px"
	 viewBox="0 0 460 460" style="enable-background:new 0 0 460 460;" xml:space="preserve">
<g id="XMLID_884_">
	<circle id="XMLID_885_" style="fill:#FE843F;" cx="230" cy="230" r="230"/>
	<path id="XMLID_886_" style="fill:#FC5A37;" d="M460,230c0-2.678-0.063-5.342-0.153-7.998l-65.419-65.419L65.57,366.58
		l75.651,75.651C168.539,453.672,198.529,460,230,460C357.025,460,460,357.025,460,230z"/>
	<polygon id="XMLID_887_" style="fill:#48D9FF;" points="394.43,186.58 394.43,316.58 349.675,326.58 304.92,316.58 304.92,186.58 
		349.675,176.58 	"/>
	<polygon id="XMLID_888_" style="fill:#FFAE46;" points="394.427,156.583 394.427,186.583 304.924,186.583 314.924,156.583 	"/>
	<polygon id="XMLID_889_" style="fill:#FFC85F;" points="394.43,316.58 394.43,366.58 314.92,366.58 304.92,316.58 	"/>
	<polygon id="XMLID_890_" style="fill:#7BE3FF;" points="155.08,186.58 155.08,316.58 110.325,326.58 65.57,316.58 65.57,186.58 
		110.325,176.58 	"/>
	<polygon id="XMLID_891_" style="fill:#FFC85F;" points="145.076,156.583 155.076,186.583 65.573,186.583 65.573,156.583 	"/>
	<polygon id="XMLID_892_" style="fill:#FFE278;" points="155.08,316.58 145.08,366.58 65.57,366.58 65.57,316.58 	"/>
	<rect id="XMLID_893_" x="230" y="45.584" style="fill:#6E1D0B;" width="58.182" height="45.368"/>
	<rect id="XMLID_894_" x="220" y="45.583" style="fill:#FFC85F;" width="20" height="81"/>
	<polygon id="XMLID_895_" style="fill:#FFFFFF;" points="230,116.58 240,241.58 230,356.58 170,366.58 145.08,366.58 145.08,116.58 
			"/>
	<polygon id="XMLID_896_" style="fill:#FFF2D4;" points="314.92,116.58 314.92,366.58 290,366.58 230,356.58 230,116.58 	"/>
	<polygon id="XMLID_897_" style="fill:#FFE278;" points="290,246.583 170,246.583 170,266.583 230,276.583 290,266.583 	"/>
	<path id="XMLID_898_" style="fill:#FFE278;" d="M189.998,181.158c0,22.091,17.908,40,40,40l10-40l-10-40
		C207.906,141.158,189.998,159.067,189.998,181.158z"/>
	<path id="XMLID_899_" style="fill:#FFC85F;" d="M229.998,141.158v80c22.091,0,40-17.909,40-40S252.089,141.158,229.998,141.158z"/>
	<polygon id="XMLID_900_" style="fill:#DB3916;" points="230,266.583 240,316.583 230,366.583 170,366.583 170,266.583 	"/>
	<rect id="XMLID_901_" x="230" y="266.583" style="fill:#6E1D0B;" width="60" height="100"/>
</g>
<g>
</g>
<g>
</g>
<g>
</g>
<g>
</g>
<g>
</g>
<g>
</g>
<g>
</g>
<g>
</g>
<g>
</g>
<g>
</g>
<g>
</g>
<g>
</g>
<g>
</g>
<g>
</g>
<g>
</g>
</svg>
